<?xml version="1.0" encoding="utf-8"?>
<!-- Generator: Adobe Illustrator 25.0.0, SVG Export Plug-In . SVG Version: 6.00 Build 0)  -->
<svg version="1.1" id="Capa_1" xmlns="http://www.w3.org/2000/svg" xmlns:xlink="http://www.w3.org/1999/xlink" x="0px" y="0px"
	 viewBox="0 0 360 360" style="enable-background:new 0 0 360 360;" xml:space="preserve">
<style type="text/css">
	.st0{fill:#34BF8F;}
</style>
<g>
	<path class="st0" d="M103.93,267.62c-8.12,0-14.7-6.59-14.7-14.73V93.26c0-8.07,6.48-14.63,14.52-14.72v0h130.68h43.56V64.75
		c0-24.52-19.84-44.4-44.32-44.4H104.09c-24.48,0-44.32,19.88-44.32,44.4v231.21c0,24.52,19.84,44.4,44.32,44.4h129.58
		c24.48,0,44.32-19.88,44.32-44.4v-28.33H103.93z M114.64,42.26c0-2.06,1.66-3.72,3.72-3.72h101.47c2.05,0,3.72,1.67,3.72,3.72
		v10.73c0,2.06-1.66,3.72-3.72,3.72H118.36c-2.05,0-3.72-1.67-3.72-3.72V42.26z M169.09,311.26c-8.02,0-14.52-6.51-14.52-14.55
		c0-8.03,6.5-14.55,14.52-14.55c8.02,0,14.52,6.51,14.52,14.55C183.61,304.75,177.11,311.26,169.09,311.26z"/>
	<path class="st0" d="M132.79,162.17c-4.01,0-7.26,3.26-7.26,7.27v68.93c0,4.11,3.32,7.43,7.42,7.43h28.72
		c4.1,0,7.42-3.33,7.42-7.43V169.6c0-4.11-3.32-7.43-7.42-7.43H132.79z"/>
	<path class="st0" d="M198.13,133.08c-4.01,0-7.26,3.26-7.26,7.27v98.02c0,4.11,3.32,7.43,7.42,7.43h28.72
		c4.1,0,7.42-3.33,7.42-7.43v-97.86c0-4.11-3.32-7.43-7.42-7.43H198.13z"/>
	<path class="st0" d="M292.35,100.35h-28.88c-4.01,0-7.26,3.26-7.26,7.27v130.75c0,4.11,3.32,7.43,7.42,7.43h28.72
		c4.1,0,7.42-3.33,7.42-7.43V107.78C299.77,103.68,296.45,100.35,292.35,100.35z"/>
</g>
</svg>
