<?xml version="1.0" encoding="utf-8"?>
<!-- Generator: Adobe Illustrator 25.0.0, SVG Export Plug-In . SVG Version: 6.00 Build 0)  -->
<svg version="1.1" id="Capa_1" xmlns="http://www.w3.org/2000/svg" xmlns:xlink="http://www.w3.org/1999/xlink" x="0px" y="0px"
	 viewBox="0 0 360 360" style="enable-background:new 0 0 360 360;" xml:space="preserve">
<style type="text/css">
	.st0{fill:#A163FF;}
</style>
<g>
	<path class="st0" d="M225.52,86.01l-43.31-24.75c-1.51-0.86-3.36-0.86-4.87,0l-43.31,24.75c-2.15,1.23-2.21,4.32-0.1,5.62
		l43.26,26.78c1.58,0.98,3.58,0.98,5.17,0l43.26-26.78C227.73,90.33,227.67,87.24,225.52,86.01z"/>
	<path class="st0" d="M172.94,134.59c0-1.7-0.88-3.28-2.33-4.17l-43.12-26.69c-2.18-1.35-5,0.22-5,2.78v48.7
		c0,1.76,0.94,3.39,2.47,4.26l43.07,24.61c2.18,1.25,4.9-0.33,4.9-2.84v-42.28v-2.73V134.59z"/>
	<path class="st0" d="M186.6,134.59v46.64c0,2.51,2.71,4.09,4.9,2.84l43.07-24.61c1.53-0.87,2.47-2.5,2.47-4.26v-48.7
		c0-2.56-2.82-4.13-5-2.78l-43.12,26.69C187.48,131.31,186.6,132.89,186.6,134.59z"/>
	<path class="st0" d="M162.79,201.36l-43.31-24.75c-1.51-0.86-3.36-0.86-4.87,0L71.3,201.36c-2.15,1.23-2.21,4.32-0.1,5.62
		l43.26,26.78c1.58,0.98,3.58,0.98,5.17,0l43.26-26.78C165,205.68,164.95,202.59,162.79,201.36z"/>
	<path class="st0" d="M110.21,249.94c0-1.7-0.88-3.28-2.33-4.17l-43.12-26.69c-2.18-1.35-5,0.22-5,2.78v48.7
		c0,1.76,0.94,3.39,2.47,4.26l43.07,24.61c2.18,1.25,4.9-0.33,4.9-2.84v-45V249.94z"/>
	<path class="st0" d="M169.32,219.07l-43.12,26.69c-1.45,0.89-2.33,2.47-2.33,4.17v46.64c0,2.51,2.71,4.09,4.9,2.84l43.07-24.61
		c1.53-0.87,2.47-2.5,2.47-4.26v-48.7C174.32,219.29,171.5,217.72,169.32,219.07z"/>
	<path class="st0" d="M288.25,201.36l-43.31-24.75c-1.51-0.86-3.36-0.86-4.87,0l-43.31,24.75c-2.15,1.23-2.21,4.32-0.1,5.62
		l43.26,26.78c1.58,0.98,3.58,0.98,5.17,0l43.26-26.78C290.46,205.68,290.4,202.59,288.25,201.36z"/>
	<path class="st0" d="M235.67,249.94c0-1.7-0.88-3.28-2.32-4.17l-43.12-26.69c-2.18-1.35-5,0.22-5,2.78v48.7
		c0,1.76,0.94,3.39,2.47,4.26l43.07,24.61c2.18,1.25,4.9-0.33,4.9-2.84V249.94z"/>
	<path class="st0" d="M294.78,219.07l-43.12,26.69c-1.45,0.89-2.33,2.47-2.33,4.17v46.64c0,2.51,2.71,4.09,4.9,2.84l43.07-24.61
		c1.53-0.87,2.47-2.5,2.47-4.26v-48.7C299.77,219.29,296.96,217.72,294.78,219.07z"/>
</g>
</svg>
