<?xml version="1.0" encoding="utf-8"?>
<!-- Generator: Adobe Illustrator 25.0.0, SVG Export Plug-In . SVG Version: 6.00 Build 0)  -->
<svg version="1.1" id="Capa_1" xmlns="http://www.w3.org/2000/svg" xmlns:xlink="http://www.w3.org/1999/xlink" x="0px" y="0px"
	 viewBox="0 0 360 360" style="enable-background:new 0 0 360 360;" xml:space="preserve">
<style type="text/css">
	.st0{fill:#FFCC56;}
</style>
<g>
	<path class="st0" d="M176.14,232.17h-48.18c-1.51,0-2.73-1.22-2.74-2.73c0,0,0-0.01,0-0.01v-10.89c0,0,0-0.01,0-0.01
		c0.01-1.51,1.23-2.73,2.74-2.73h54.02c8.46-17.03,23.32-30.31,41.43-36.71v-69.52c0-9.11-7.39-16.5-16.5-16.5h-13.18
		c-1.69,0-3.05,1.37-3.05,3.05v24.21c0,3.01-2.44,5.46-5.46,5.46H97.91c-2.99,0-5.41-2.42-5.41-5.41V95.63
		c0-1.41-1.14-2.55-2.55-2.55H76.27c-9.11,0-16.5,7.39-16.5,16.5v174.28c0,9.11,7.39,16.5,16.5,16.5h119.37
		c-13.18-13.31-21.32-31.61-21.32-51.82C174.32,242.91,174.95,237.43,176.14,232.17z M125.22,153.01c0-1.47,1.19-2.66,2.66-2.66
		h60.13c1.47,0,2.66,1.19,2.66,2.66v11.04c0,1.47-1.19,2.66-2.66,2.66h-60.13c-1.47,0-2.66-1.19-2.66-2.66V153.01z M125.22,185.75
		c0-1.48,1.2-2.67,2.67-2.67h60.11c1.48,0,2.67,1.2,2.67,2.67v11.02c0,1.48-1.2,2.67-2.67,2.67H127.9c-1.48,0-2.67-1.2-2.67-2.67
		V185.75z M100.68,234.89c-6.02,0-10.91-4.88-10.91-10.91c0-6.02,4.88-10.91,10.91-10.91s10.91,4.88,10.91,10.91
		C111.59,230.01,106.7,234.89,100.68,234.89z M100.68,202.17c-6.02,0-10.91-4.88-10.91-10.91s4.88-10.91,10.91-10.91
		s10.91,4.88,10.91,10.91S106.7,202.17,100.68,202.17z M100.68,169.44c-6.02,0-10.91-4.88-10.91-10.91
		c0-6.02,4.88-10.91,10.91-10.91s10.91,4.88,10.91,10.91C111.59,164.56,106.7,169.44,100.68,169.44z"/>
	<path class="st0" d="M111.58,112.17h8.16l0,0h43.69c0,0,0,0,0,0h8.16c3.01,0,5.45-2.44,5.45-5.45c0,0,0-0.01,0-0.01h0v-8.15v-2.76
		v-0.03c0-7.52-6.09-13.61-13.61-13.61h-2.75h-2.77c-1.48,0-2.68-1.2-2.68-2.68v-2.77v-2.73c0-7.53-6.11-13.64-13.64-13.64
		c-7.53,0-13.64,6.11-13.64,13.64v2.73v2.77c0,1.48-1.2,2.68-2.68,2.68h-2.77h-2.76c-7.52,0-13.61,6.09-13.61,13.61v0.03v2.76v8.15
		h0c0,0,0,0.01,0,0.01C106.13,109.73,108.57,112.17,111.58,112.17z"/>
	<path class="st0" d="M247.95,196.71c-8.88,0-17.24,2.24-24.55,6.17c-16.24,8.75-27.27,25.91-27.27,45.65
		c0,18.68,9.88,35.04,24.7,44.16c7.89,4.85,17.18,7.66,27.12,7.66c28.62,0,51.82-23.2,51.82-51.82
		C299.77,219.91,276.57,196.71,247.95,196.71z M264.32,277.28h-9.44v6.71c0,3.83-3.1,6.93-6.93,6.93c-3.83,0-6.93-3.1-6.93-6.93
		v-6.71h-17.62h0c-3.83,0-6.93-3.1-6.93-6.93s3.1-6.93,6.93-6.93h0h24.55h16.28c0.43-0.02,1.66-0.19,2.64-0.74
		c0.53-0.3,1.43-0.81,1.43-3.24c0-2.43-0.89-2.94-1.43-3.24c-0.97-0.55-2.2-0.72-2.64-0.74h-32.65c-2.5,0-5.43-0.58-8.18-1.89
		c-5.13-2.44-9.65-7.43-9.65-15.95c0-8.52,4.52-13.5,9.65-15.95c2.75-1.31,5.68-1.89,8.18-1.89h9.44v-6.71
		c0-3.83,3.1-6.93,6.93-6.93c3.83,0,6.93,3.1,6.93,6.93v6.71h17.62c3.83,0,6.93,3.1,6.93,6.93c0,3.83-3.1,6.93-6.93,6.93h-24.55
		h-16.28c-0.43,0.02-1.66,0.19-2.64,0.74c-0.53,0.3-1.43,0.81-1.43,3.24c0,2.43,0.89,2.94,1.43,3.24c0.97,0.55,2.2,0.72,2.63,0.74
		h32.65c7.17,0,17.84,4.75,17.84,17.84C282.15,272.53,271.49,277.28,264.32,277.28z"/>
</g>
</svg>
