<?xml version="1.0" encoding="utf-8"?>
<!-- Generator: Adobe Illustrator 25.0.0, SVG Export Plug-In . SVG Version: 6.00 Build 0)  -->
<svg version="1.1" id="Capa_1" xmlns="http://www.w3.org/2000/svg" xmlns:xlink="http://www.w3.org/1999/xlink" x="0px" y="0px"
	 viewBox="0 0 360 360" style="enable-background:new 0 0 360 360;" xml:space="preserve">
<style type="text/css">
	.st0{fill:#FFB816;}
</style>
<g>
	<path class="st0" d="M283.31,65.81H76.24c-9.09,0-16.47,7.37-16.47,16.46v23.07v1.26v26c0,15.35,12.09,27.88,27.27,28.59v-38.13v-8
		c0-3.11,2.52-5.64,5.64-5.64h174.18c3.11,0,5.64,2.52,5.64,5.64v8v38.13c15.18-0.71,27.27-13.24,27.27-28.59v-26v-1.26V82.27
		C299.77,73.18,292.4,65.81,283.31,65.81z"/>
	<path class="st0" d="M103.41,161.23v98.13v24.55v0.18c0,5.39,5.51,9.02,10.47,6.9l12.03-5.15c1.89-0.81,4.03-0.81,5.92,0
		l19.54,8.37c1.89,0.81,4.03,0.81,5.92,0l19.54-8.37c1.89-0.81,4.03-0.81,5.92,0l19.53,8.37c1.89,0.81,4.04,0.81,5.93-0.01
		l19.39-8.35c1.89-0.81,4.03-0.82,5.92-0.01l12.18,5.19c4.95,2.11,10.46-1.52,10.46-6.91v-0.2v-24.55v-98.13v-35.44H103.41V161.23z
		 M123.75,245.74c0-3.82,3.1-6.92,6.93-6.92h98.18c3.83,0,6.93,3.1,6.93,6.92c0,2.65-1.49,4.95-3.68,6.11
		c-0.97,0.52-2.08,0.81-3.25,0.81h-98.18c-1.18,0-2.28-0.29-3.25-0.81C125.24,250.69,123.75,248.39,123.75,245.74z M201.59,184.29
		h27.27c3.83,0,6.93,3.1,6.93,6.92s-3.1,6.92-6.93,6.92h-27.27c-3.83,0-6.93-3.1-6.93-6.92S197.76,184.29,201.59,184.29z
		 M194.66,169.41c0-3.82,3.1-6.92,6.93-6.92h27.27c3.83,0,6.93,3.1,6.93,6.92s-3.1,6.92-6.93,6.92h-27.27
		C197.76,176.33,194.66,173.23,194.66,169.41z M201.59,206.1h27.27c3.83,0,6.93,3.1,6.93,6.92c0,3.82-3.1,6.92-6.93,6.92h-27.27
		c-3.83,0-6.93-3.1-6.93-6.92C194.66,209.2,197.76,206.1,201.59,206.1z M148.3,155.78c0-3.82,3.1-6.92,6.93-6.92
		c3.83,0,6.93,3.1,6.93,6.92v5.45v1.25h17.62c3.83,0,6.93,3.1,6.93,6.92s-3.1,6.92-6.93,6.92h-24.55h-16.28
		c-0.43,0.02-1.66,0.19-2.64,0.74c-0.53,0.3-1.43,0.81-1.43,3.24c0,2.54,0.98,3.02,1.63,3.35c1.09,0.55,2.35,0.63,2.36,0.63h32.73
		c7.17,0,17.84,4.75,17.84,17.83c0,13.08-10.67,17.83-17.84,17.83h-9.44v6.71c0,3.82-3.1,6.92-6.93,6.92c-3.83,0-6.93-3.1-6.93-6.92
		v-6.71h-17.62c-3.83,0-6.93-3.1-6.93-6.92c0-3.82,3.1-6.92,6.93-6.92h24.55h16.28c0.43-0.02,1.66-0.19,2.64-0.74
		c0.53-0.3,1.43-0.81,1.43-3.24c0-2.43-0.89-2.94-1.43-3.24c-0.97-0.55-2.2-0.72-2.64-0.74h-32.65c-7.17,0-17.84-4.75-17.84-17.83
		c0-13.08,10.67-17.83,17.84-17.83h9.44v-1.25V155.78z"/>
</g>
</svg>
