<?xml version="1.0" encoding="utf-8"?>
<!-- Generator: Adobe Illustrator 25.0.0, SVG Export Plug-In . SVG Version: 6.00 Build 0)  -->
<svg version="1.1" id="Capa_1" xmlns="http://www.w3.org/2000/svg" xmlns:xlink="http://www.w3.org/1999/xlink" x="0px" y="0px"
	 viewBox="0 0 360 360" style="enable-background:new 0 0 360 360;" xml:space="preserve">
<style type="text/css">
	.st0{fill:#BE8AD1;}
</style>
<g>
	<path class="st0" d="M289.29,173.91c-6.02-0.24-11.1,4.44-11.35,10.47c-0.28,6.95-1.29,13.86-3.01,20.54
		c-1.5,5.84,2.01,11.79,7.85,13.29c0.91,0.24,1.83,0.35,2.73,0.35c4.86,0,9.3-3.27,10.56-8.2c2.1-8.17,3.34-16.62,3.68-25.1
		C300.01,179.24,295.32,174.16,289.29,173.91z"/>
	<path class="st0" d="M273.32,150.2c1.49,4.63,5.78,7.57,10.39,7.57c1.11,0,2.24-0.17,3.35-0.53c5.74-1.85,8.89-8,7.05-13.74
		c-2.59-8.05-6.06-15.86-10.3-23.2c-3.02-5.22-9.7-7-14.92-3.99c-5.22,3.02-7,9.7-3.99,14.92
		C268.37,137.24,271.2,143.62,273.32,150.2z"/>
	<path class="st0" d="M87.92,124.24l43.68-10.4c3.16-0.75,4.27-4.68,1.98-6.98l-8.27-8.27c15.99-10.65,34.91-16.49,54.47-16.49
		c21.46,0,41.85,6.79,58.96,19.65c4.82,3.62,11.66,2.65,15.29-2.17c3.62-4.82,2.65-11.66-2.17-15.29
		C230.93,68.57,206,60.26,179.77,60.26c-25.38,0-49.89,8.06-70.15,22.64l-9.21-9.21c-2.29-2.29-6.21-1.18-6.97,1.97l-10.4,43.69
		C82.34,122.29,84.98,124.94,87.92,124.24z"/>
	<path class="st0" d="M70.7,186.8c5.83,0,10.66-4.6,10.9-10.48c0.28-6.95,1.29-13.86,3.01-20.54c1.5-5.84-2.01-11.79-7.85-13.29
		c-5.84-1.5-11.79,2.01-13.29,7.85c-2.1,8.17-3.34,16.62-3.69,25.1c-0.24,6.02,4.44,11.1,10.47,11.35
		C70.4,186.79,70.55,186.8,70.7,186.8z"/>
	<path class="st0" d="M86.22,210.5c-1.85-5.74-8-8.89-13.74-7.05c-5.74,1.85-8.89,8-7.05,13.74c2.59,8.05,6.06,15.86,10.3,23.2
		c2.02,3.5,5.69,5.45,9.46,5.45c1.85,0,3.73-0.47,5.45-1.47c5.22-3.02,7-9.7,3.99-14.92C91.18,223.46,88.34,217.08,86.22,210.5z"/>
	<path class="st0" d="M271.62,236.46l-43.68,10.4c-3.16,0.75-4.27,4.68-1.98,6.98l8.27,8.27c-15.99,10.65-34.91,16.49-54.47,16.49
		c-21.46,0-41.85-6.79-58.96-19.65c-4.82-3.62-11.66-2.65-15.29,2.17c-3.62,4.82-2.65,11.66,2.17,15.29
		c20.92,15.72,45.84,24.02,72.07,24.02c25.38,0,49.89-8.06,70.15-22.64l9.21,9.21c2.29,2.29,6.21,1.18,6.97-1.97l10.4-43.69
		C277.2,238.41,274.56,235.77,271.62,236.46z"/>
	<path class="st0" d="M190.8,155.69h-22.05c-7.52,0-13.64,6.12-13.64,13.64v2.94h46.48c1.57,0,2.85-1.28,2.85-2.85v-0.09
		C204.44,161.81,198.32,155.69,190.8,155.69z"/>
	<path class="st0" d="M179.77,114.85c-36.18,0-65.5,29.33-65.5,65.5s29.33,65.5,65.5,65.5s65.5-29.33,65.5-65.5
		S215.95,114.85,179.77,114.85z M220.61,169.42c0,10.49-8.53,19.02-19.02,19.02h-46.48v2.94c0,7.52,6.12,13.64,13.64,13.64h22.05
		c3.34,0,6.55-1.22,9.04-3.42c3.34-2.96,8.46-2.65,11.42,0.69c2.96,3.34,2.65,8.46-0.69,11.42c-5.45,4.83-12.47,7.49-19.77,7.49
		h-22.05c-16.44,0-29.82-13.38-29.82-29.82v-22.05c0-16.44,13.38-29.82,29.82-29.82h22.05c16.44,0,29.82,13.38,29.82,29.82V169.42z"
		/>
</g>
</svg>
