<?xml version="1.0" encoding="utf-8"?>
<!-- Generator: Adobe Illustrator 25.0.0, SVG Export Plug-In . SVG Version: 6.00 Build 0)  -->
<svg version="1.1" id="Capa_1" xmlns="http://www.w3.org/2000/svg" xmlns:xlink="http://www.w3.org/1999/xlink" x="0px" y="0px"
	 viewBox="0 0 360 360" style="enable-background:new 0 0 360 360;" xml:space="preserve">
<style type="text/css">
	.st0{fill:#F06BBC;}
</style>
<g>
	<path class="st0" d="M178.19,204.35H76.82c-26.53,0-48.05,21.49-48.05,48v0v17.11v3.46v13.74c0,7.56,6.13,13.68,13.7,13.68h34.35
		h27.48h95.44c-16.59-16.73-26.83-39.74-26.83-65.14C172.91,224.39,174.77,214,178.19,204.35z"/>
	<ellipse class="st0" cx="152.32" cy="122.07" rx="61.77" ry="61.71"/>
	<path class="st0" d="M265.57,170.07c-24.84,0-46.43,13.87-57.44,34.29c-4.95,9.18-7.77,19.69-7.77,30.86
		c0,28.87,18.8,53.36,44.84,61.9c6.41,2.1,13.25,3.24,20.36,3.24c36.01,0,65.2-29.17,65.2-65.14
		C330.77,199.23,301.58,170.07,265.57,170.07z M286.16,271.35h-11.87v8.43c0,4.81-3.9,8.71-8.72,8.71c-1.71,0-3.3-0.5-4.65-1.35
		c-2.44-1.54-4.07-4.26-4.07-7.36v-8.43h-22.17c-4.81,0-8.72-3.9-8.72-8.71s3.9-8.71,8.72-8.71h30.89h10.27h10.22
		c0.54-0.03,2.09-0.23,3.32-0.93c0.67-0.38,1.79-1.02,1.79-4.08c0-3.19-1.23-3.8-2.05-4.21c-1.37-0.69-2.95-0.79-2.97-0.79h-11.04
		h-30.15c-9.02,0-22.44-5.97-22.44-22.42c0-8.01,3.18-13.53,7.49-17.09c4.54-3.75,10.32-5.33,14.95-5.33h11.87v-8.43
		c0-4.81,3.9-8.71,8.72-8.71s8.72,3.9,8.72,8.71v8.43h22.17c4.81,0,8.72,3.9,8.72,8.71c0,4.81-3.9,8.71-8.72,8.71h-30.89h-5.82
		h-14.67c-0.54,0.03-2.09,0.23-3.32,0.93c-0.67,0.38-1.79,1.02-1.79,4.08c0,3.06,1.12,3.7,1.79,4.08c1.22,0.7,2.77,0.9,3.32,0.93
		h23.23h17.85c9.02,0,22.44,5.97,22.44,22.42C308.6,265.37,295.18,271.35,286.16,271.35z"/>
</g>
</svg>
