<?xml version="1.0" encoding="utf-8"?>
<!-- Generator: Adobe Illustrator 25.0.0, SVG Export Plug-In . SVG Version: 6.00 Build 0)  -->
<svg version="1.1" id="Capa_1" xmlns="http://www.w3.org/2000/svg" xmlns:xlink="http://www.w3.org/1999/xlink" x="0px" y="0px"
	 viewBox="0 0 360 360" style="enable-background:new 0 0 360 360;" xml:space="preserve">
<style type="text/css">
	.st0{fill:#06C1FF;}
</style>
<path class="st0" d="M234.54,60.35H125c-17.8,0-32.23,14.48-32.23,32.33v175.34c0,17.86,14.43,32.33,32.23,32.33h109.54
	c17.8,0,32.23-14.48,32.23-32.33V92.68C266.77,74.83,252.34,60.35,234.54,60.35z M147.15,273.04c0,3.03-2.45,5.49-5.47,5.49H120
	c-3.02,0-5.47-2.46-5.47-5.49v-10.83c0-3.03,2.45-5.49,5.47-5.49h21.68c3.02,0,5.47,2.46,5.47,5.49V273.04z M147.15,240.31
	c0,3.03-2.45,5.49-5.47,5.49H120c-3.02,0-5.47-2.46-5.47-5.49v-10.83c0-3.03,2.45-5.49,5.47-5.49h21.68c3.02,0,5.47,2.46,5.47,5.49
	V240.31z M147.15,207.59c0,3.03-2.45,5.49-5.47,5.49H120c-3.02,0-5.47-2.46-5.47-5.49v-10.83c0-3.03,2.45-5.49,5.47-5.49h21.68
	c3.02,0,5.47,2.46,5.47,5.49V207.59z M196.08,273.04c0,3.03-2.45,5.49-5.47,5.49h-21.68c-3.02,0-5.47-2.46-5.47-5.49v-10.83
	c0-3.03,2.45-5.49,5.47-5.49h21.68c3.02,0,5.47,2.46,5.47,5.49V273.04z M196.08,240.31c0,3.03-2.45,5.49-5.47,5.49h-21.68
	c-3.02,0-5.47-2.46-5.47-5.49v-10.83c0-3.03,2.45-5.49,5.47-5.49h21.68c3.02,0,5.47,2.46,5.47,5.49V240.31z M196.08,207.59
	c0,3.03-2.45,5.49-5.47,5.49h-21.68c-3.02,0-5.47-2.46-5.47-5.49v-10.83c0-3.03,2.45-5.49,5.47-5.49h21.68
	c3.02,0,5.47,2.46,5.47,5.49V207.59z M245.02,273.04c0,3.03-2.45,5.49-5.47,5.49h-21.68c-3.02,0-5.47-2.46-5.47-5.49v-43.56
	c0-3.03,2.45-5.49,5.47-5.49h21.68c3.02,0,5.47,2.46,5.47,5.49V273.04z M245.02,207.59c0,3.03-2.45,5.49-5.47,5.49h-21.68
	c-3.02,0-5.47-2.46-5.47-5.49v-10.83c0-3.03,2.45-5.49,5.47-5.49h21.68c3.02,0,5.47,2.46,5.47,5.49V207.59z M245.02,158.47
	c0,6.06-4.9,10.98-10.94,10.98H125.46c-6.04,0-10.94-4.91-10.94-10.98V93.15c0-6.06,4.9-10.98,10.94-10.98h108.62
	c6.04,0,10.94,4.91,10.94,10.98V158.47z"/>
</svg>
