<?xml version="1.0" encoding="utf-8"?>
<!-- Generator: Adobe Illustrator 25.0.0, SVG Export Plug-In . SVG Version: 6.00 Build 0)  -->
<svg version="1.1" id="Capa_1" xmlns="http://www.w3.org/2000/svg" xmlns:xlink="http://www.w3.org/1999/xlink" x="0px" y="0px"
	 viewBox="0 0 360 360" style="enable-background:new 0 0 360 360;" xml:space="preserve">
<style type="text/css">
	.st0{fill:#FF8623;}
</style>
<g>
	<path class="st0" d="M135.72,165.08l-23.1-37.4c-1.88-3.04-6.31-3.04-8.19,0l-23.1,37.4l-4.82,7.8c-2.02,3.27,0.34,7.49,4.2,7.49
		h11.25v93.94c0,3,2.44,5.43,5.45,5.43h21.97c3.02,0,5.47-2.44,5.47-5.45v-93.92h11.51c3.85,0,6.21-4.2,4.19-7.47L135.72,165.08z"/>
	<path class="st0" d="M206.96,143.24l-23.1-37.4c-1.88-3.04-6.31-3.04-8.19,0l-23.1,37.4l-4.82,7.8c-2.02,3.27,0.34,7.49,4.2,7.49
		h11.25V274.3c0,3,2.44,5.43,5.45,5.43h21.97c3.02,0,5.47-2.44,5.47-5.45V158.53h11.51c3.85,0,6.21-4.2,4.19-7.47L206.96,143.24z"/>
	<path class="st0" d="M283.04,129.22l-4.83-7.82l-23.1-37.4c-1.88-3.04-6.31-3.04-8.19,0l-23.1,37.4l-4.82,7.8
		c-2.02,3.27,0.34,7.49,4.2,7.49h11.25V274.3c0,3,2.44,5.43,5.45,5.43h21.97c3.02,0,5.47-2.44,5.47-5.45V136.69h11.51
		C282.69,136.69,285.05,132.49,283.04,129.22z"/>
</g>
</svg>
