<?xml version="1.0" encoding="utf-8"?>
<!-- Generator: Adobe Illustrator 25.0.0, SVG Export Plug-In . SVG Version: 6.00 Build 0)  -->
<svg version="1.1" id="Capa_1" xmlns="http://www.w3.org/2000/svg" xmlns:xlink="http://www.w3.org/1999/xlink" x="0px" y="0px"
	 viewBox="0 0 360 360" style="enable-background:new 0 0 360 360;" xml:space="preserve">
<style type="text/css">
	.st0{fill:#16A0FF;}
</style>
<g>
	<path class="st0" d="M276.38,150.72L276.38,150.72l-1.95-18.59l-6.41-61.02c-0.64-6.11-5.79-10.76-11.93-10.76H103.46
		c-6.14,0-11.28,4.64-11.93,10.76l-3.74,35.61l0,0l-2.19,20.83l-2.43,23.17v0l-1.39,13.27v81.69v32.85v11.04
		c0,5.96,4.82,10.78,10.76,10.78h11.14c5.94,0,10.76-4.83,10.76-10.78v-11.04v-16.35c0-3.02,2.45-5.47,5.46-5.47h119.74
		c3.02,0,5.46,2.45,5.46,5.47v16.35v11.04c0,5.96,4.82,10.78,10.76,10.78h11.14c5.94,0,10.76-4.83,10.76-10.78v-11.04v-32.85v-81.69
		L276.38,150.72z M119.5,87.6c0.22-3.06,2.76-5.43,5.82-5.43h54.45h54.45c3.06,0,5.6,2.37,5.82,5.43l1.36,19.12l3.25,45.55
		c0.24,3.38-2.43,6.26-5.82,6.26h-59.07h-59.07c-3.39,0-6.06-2.88-5.82-6.26l3.25-45.55L119.5,87.6z M130.77,229.34
		c0,3.07-2.48,5.56-5.55,5.56h-21.55h-0.02c-3.06,0-5.55-2.49-5.55-5.56v-21.61c0-3.07,2.48-5.56,5.55-5.56h21.57
		c3.06,0,5.55,2.49,5.55,5.56V229.34z M206.99,221.35c0,2.96-2.4,5.36-5.35,5.36H157.9c-2.96,0-5.35-2.4-5.35-5.36v-5.63
		c0-2.96,2.4-5.36,5.35-5.36h43.74c2.96,0,5.35,2.4,5.35,5.36V221.35z M234.32,234.9c-3.06,0-5.55-2.49-5.55-5.56v-21.61
		c0-3.07,2.48-5.56,5.55-5.56h21.57c3.06,0,5.55,2.49,5.55,5.56v21.61c0,3.07-2.48,5.56-5.55,5.56h-0.02H234.32z"/>
	<path class="st0" d="M152.71,114.9h54.12c1.59,0,2.89-1.29,2.89-2.89v-5.29V98.7c0-1.6-1.29-2.89-2.89-2.89h-54.12
		c-1.59,0-2.89,1.29-2.89,2.89v8.02v5.29C149.83,113.6,151.12,114.9,152.71,114.9z"/>
</g>
</svg>
