<?xml version="1.0" encoding="utf-8"?>
<!-- Generator: Adobe Illustrator 25.0.0, SVG Export Plug-In . SVG Version: 6.00 Build 0)  -->
<svg version="1.1" id="Capa_1" xmlns="http://www.w3.org/2000/svg" xmlns:xlink="http://www.w3.org/1999/xlink" x="0px" y="0px"
	 viewBox="0 0 360 360" style="enable-background:new 0 0 360 360;" xml:space="preserve">
<style type="text/css">
	.st0{fill:#45FFBF;}
</style>
<g>
	<path class="st0" d="M299.77,169.44c0-8.04-2.95-15.77-8.31-21.76c0,0,0,0,0,0c-0.8-0.9-1.67-1.76-2.56-2.56
		c-3.33-2.98-8.44-2.7-11.42,0.63c-2.98,3.33-2.7,8.44,0.63,11.42c0.46,0.41,0.89,0.85,1.3,1.3c0,0,0,0,0,0
		c2.7,3.02,4.19,6.92,4.19,10.98c0,7.62-5.2,14.04-12.24,15.92c-14.27-28.48-49.88-48.66-91.54-48.66
		c-13.02,0-25.45,1.98-36.82,5.56c-11.39-2.65-25.94-4.73-44.32-5.36c-4.92-0.17-7.97,5.29-5.24,9.38L105,163.61
		c-8.73,7.97-15.38,17.36-19.32,27.66h-9.5c-9.06,0-16.4,7.34-16.4,16.4v5.43v5.25v5.67c0,21.04,18.15,39.75,46.38,51.72v13.68
		c0,6.07,4.92,10.99,10.99,10.99h19.17c6.43,0,12.13-4.11,14.16-10.21l0.85-2.56c8.52,1.13,17.39,1.76,26.51,1.84
		c0.66,0.01,1.32,0.02,1.98,0.02c9.75,0,19.16-1.11,28.05-3.17l1.29,3.87c2.03,6.1,7.74,10.21,14.16,10.21h19.17
		c6.07,0,10.99-4.92,10.99-10.99v-25.79c15.28-13.47,24.56-31.15,24.56-50.52c0-4.24-0.45-8.4-1.31-12.46
		C290.06,196.52,299.77,184.09,299.77,169.44z M114.34,213.09c-3.26,0-6.19-1.43-8.19-3.7c-1.7-1.92-2.73-4.45-2.73-7.21
		c0-2.63,0.93-5.04,2.48-6.92c2-2.44,5.04-3.99,8.44-3.99c6.03,0,10.91,4.89,10.91,10.91C125.25,208.21,120.37,213.09,114.34,213.09
		z M220.08,178.08c-1.26,3.17-4.3,5.1-7.52,5.1c-0.99,0-2-0.18-2.98-0.57c-1.35-0.54-2.75-1.04-4.16-1.51
		c-8.03-2.64-16.64-3.98-25.6-3.98c-8.96,0-17.57,1.34-25.6,3.98c-1.25,0.41-2.5,0.86-3.7,1.33c-4.16,1.62-8.85-0.44-10.47-4.6
		c-0.73-1.89-0.71-3.88-0.08-5.64c0.76-2.13,2.4-3.94,4.68-4.83c1.47-0.57,2.99-1.12,4.51-1.62c6.75-2.22,13.82-3.67,21.11-4.35
		c3.14-0.29,6.33-0.44,9.54-0.44c10.68,0,20.99,1.61,30.65,4.79c1.72,0.56,3.42,1.18,5.07,1.84
		C219.7,169.23,221.73,173.93,220.08,178.08z"/>
	<circle class="st0" cx="179.82" cy="87.58" r="27.28"/>
</g>
</svg>
